<svg width="40" height="40" viewBox="0 0 40 40" fill="none" xmlns="http://www.w3.org/2000/svg">
<g clip-path="url(#clip0_403_202)">
<path d="M20 5C11.7188 5 5 11.7188 5 20C5 28.2812 11.7188 35 20 35C21.3828 35 22.5 36.1172 22.5 37.5C22.5 38.8828 21.3828 40 20 40C8.95312 40 0 31.0469 0 20C0 8.95312 8.95312 0 20 0C31.0469 0 40 8.95312 40 20V22.5C40 26.6406 36.6406 30 32.5 30C30.2109 30 28.1562 28.9688 26.7812 27.3516C25 28.9922 22.6172 30 20 30C14.4766 30 10 25.5234 10 20C10 14.4766 14.4766 10 20 10C22.1797 10 24.1953 10.6953 25.8359 11.8828C26.2812 11.4922 26.8594 11.25 27.5 11.25C28.8828 11.25 30 12.3672 30 13.75V20V22.5C30 23.8828 31.1172 25 32.5 25C33.8828 25 35 23.8828 35 22.5V20C35 11.7188 28.2812 5 20 5ZM25 20C25 18.6739 24.4732 17.4021 23.5355 16.4645C22.5979 15.5268 21.3261 15 20 15C18.6739 15 17.4021 15.5268 16.4645 16.4645C15.5268 17.4021 15 18.6739 15 20C15 21.3261 15.5268 22.5979 16.4645 23.5355C17.4021 24.4732 18.6739 25 20 25C21.3261 25 22.5979 24.4732 23.5355 23.5355C24.4732 22.5979 25 21.3261 25 20Z" fill="#D6D3D1"/>
</g>
<defs>
<clipPath id="clip0_403_202">
<rect width="40" height="40" fill="white"/>
</clipPath>
</defs>
</svg>
