<svg width="431" height="339" viewBox="0 0 431 339" fill="none" xmlns="http://www.w3.org/2000/svg">
<mask id="mask0_403_228" style="mask-type:luminance" maskUnits="userSpaceOnUse" x="0" y="0" width="431" height="339">
<path d="M406.42 241.576C373.685 279.699 336.013 301.194 293.403 306.061C250.793 310.928 206.994 319.85 162.007 332.828C117.02 345.807 80.1701 334.856 51.4587 299.978C22.7473 265.099 5.92273 225.84 0.985095 182.201C-3.95254 138.562 9.67168 98.8977 41.8577 63.2079C74.0438 27.518 115.374 6.91521 165.847 1.39951C216.321 -4.1162 259.937 6.67187 296.695 33.7637C333.453 60.8556 369.113 92.7331 403.677 129.396C438.24 166.06 439.155 203.453 406.42 241.576Z" fill="white"/>
</mask>
<g mask="url(#mask0_403_228)">
<path d="M406.42 241.576C373.685 279.699 336.013 301.194 293.403 306.061C250.793 310.928 206.994 319.85 162.007 332.828C117.02 345.807 80.1701 334.856 51.4587 299.978C22.7473 265.099 5.92273 225.84 0.985095 182.201C-3.95254 138.562 9.67168 98.8977 41.8577 63.2079C74.0438 27.518 115.374 6.91521 165.847 1.39951C216.321 -4.1162 259.937 6.67187 296.695 33.7637C333.453 60.8556 369.113 92.7331 403.677 129.396C438.24 166.06 439.155 203.453 406.42 241.576Z" fill="url(#paint0_linear_403_228)"/>
</g>
<defs>
<linearGradient id="paint0_linear_403_228" x1="-164.338" y1="-78.3486" x2="-513.366" y2="148.812" gradientUnits="userSpaceOnUse">
<stop stop-color="#B844FF"/>
<stop offset="1" stop-color="#B844FF"/>
</linearGradient>
</defs>
</svg>
