<svg width="621" height="552" viewBox="0 0 621 552" fill="none" xmlns="http://www.w3.org/2000/svg">
<mask id="mask0_403_241" style="mask-type:luminance" maskUnits="userSpaceOnUse" x="78" y="87" width="482" height="400">
<path d="M134.949 113.662C187.741 87.3956 238.401 81.0721 286.929 94.6912C335.457 108.31 387.107 118.122 441.88 124.127C496.652 130.132 531.781 158.102 547.266 208.039C562.752 257.976 563.336 307.342 549.019 356.137C534.702 404.932 501.994 441.284 450.896 465.193C399.798 489.102 345.563 492.857 288.192 476.459C230.82 460.06 188.261 429.274 160.513 384.102C132.765 338.929 108.369 289.129 87.3255 234.702C66.2817 180.275 82.1561 139.928 134.949 113.662Z" fill="white"/>
</mask>
<g mask="url(#mask0_403_241)">
<path d="M134.949 113.662C187.741 87.3956 238.401 81.0721 286.929 94.6912C335.457 108.31 387.107 118.122 441.88 124.127C496.652 130.132 531.781 158.102 547.266 208.039C562.752 257.976 563.336 307.342 549.019 356.137C534.702 404.932 501.994 441.284 450.896 465.193C399.798 489.102 345.563 492.857 288.192 476.459C230.82 460.06 188.261 429.274 160.513 384.102C132.765 338.929 108.369 289.129 87.3255 234.702C66.2817 180.275 82.1561 139.928 134.949 113.662Z" fill="#F2DCFF"/>
</g>
</svg>
