<svg viewBox="0 0 1000 1000" xmlns="http://www.w3.org/2000/svg"><defs><linearGradient id="b" gradientTransform="rotate(150 .5 .5)"><stop offset="0%" stop-color="#FBAB7E"/><stop offset="100%" stop-color="#f7ce68"/></linearGradient><clipPath id="a"><path fill="currentColor" d="M869.5 617.5Q780 735 663.5 750T424 805q-123 40-201.5-67.5t-92-242Q117 361 205 251t226-127q138-17 238.5 66.5t195 196.5q94.5 113 5 230.5Z"/></clipPath></defs><g clip-path="url(#a)"><path fill="url(#b)" d="M869.5 617.5Q780 735 663.5 750T424 805q-123 40-201.5-67.5t-92-242Q117 361 205 251t226-127q138-17 238.5 66.5t195 196.5q94.5 113 5 230.5Z"/></g></svg>